<?xml version="1.0" encoding="UTF-8" standalone="no"?>
<!-- Created with Inkscape (http://www.inkscape.org/) -->

<svg
   width="180"
   height="180"
   viewBox="0 0 47.624999 47.625"
   version="1.1"
   id="svg1"
   xmlns="http://www.w3.org/2000/svg"
   xmlns:svg="http://www.w3.org/2000/svg">
  <defs
     id="defs1">
    <rect
       x="219.88821"
       y="522.36859"
       width="425.83228"
       height="119.06142"
       id="rect1-5" />
  </defs>
  <g
     id="layer1">
    <g
       id="g1"
       transform="translate(-0.93517382,-0.15796625)">
      <path
         d="m 26.062322,34.198578 c 5.622193,-3.524155 9.763368,-8.198761 10.732812,-12.115323 0.218897,-0.884335 0.332665,-1.809612 0.222324,-1.808093 -0.147846,0.0021 -2.643053,0.53244 -2.673834,0.56838 -0.0219,0.02559 -0.140963,0.41043 -0.264563,0.855228 -0.250354,0.90093 -1.025151,2.390861 -1.783839,3.430289 -1.424419,1.951526 -3.345102,3.738113 -6.063023,5.639731 l -1.488307,1.041309 -0.959997,-0.665274 c -3.934367,-2.726512 -6.686954,-5.609477 -7.839587,-8.210922 -0.352507,-0.795592 -0.70907,-2.18236 -0.590991,-2.298489 0.03272,-0.0322 1.421583,-0.32084 3.086357,-0.641465 2.863344,-0.551466 3.034048,-0.569693 3.159815,-0.337486 0.536374,0.990315 1.730868,1.802326 2.85336,1.939692 1.516758,0.185611 3.226223,-1.021417 3.66263,-2.586133 0.166192,-0.59587 0.289039,-0.802806 0.507674,-0.855165 0.247748,-0.05934 6.294584,-1.254585 7.831856,-1.54809 l 0.529362,-0.101072 0.03466,-5.226111 0.03466,-5.2261083 -0.630194,-5.168e-4 C 35.587821,6.0524443 33.587088,5.7110677 32.331946,5.3552717 30.075003,4.7154922 27.250689,3.2821578 25.312888,1.79311 L 24.758032,1.3667471 23.857143,2.0515883 C 20.924278,4.2810979 17.188565,5.7174762 13.493877,6.0362471 l -0.992555,0.085632 -0.03506,4.1692369 c -0.0193,2.293079 -0.0097,4.237406 0.02121,4.320734 0.04011,0.108067 0.4296,0.08784 1.35848,-0.07056 l 1.30222,-0.222052 0.03571,-2.902185 c 0.03456,-2.8095093 0.04427,-2.9021853 0.303349,-2.9021853 0.514021,0 2.317661,-0.426637 3.564989,-0.843278 1.419198,-0.4740402 3.804199,-1.6400378 4.957633,-2.4237111 l 0.770306,-0.5233705 0.742315,0.5093285 c 1.001727,0.6873117 2.983929,1.7048572 4.297427,2.2060351 1.215767,0.463895 3.538135,1.074551 4.087583,1.07482 l 0.363935,1.76e-4 v 3.1493713 c 0,2.402541 -0.03922,3.160838 -0.165425,3.19773 -0.09098,0.02661 -1.560255,0.316062 -3.265049,0.643251 -2.397821,0.4602 -3.112491,0.55499 -3.156472,0.418663 -0.08606,-0.266799 -0.691742,-0.82228 -1.314179,-1.205271 -1.193388,-0.734306 -2.89493,-0.472706 -3.966443,0.609819 -0.480239,0.485172 -0.628088,0.726931 -0.937209,1.532508 -0.124756,0.325111 -0.275687,0.374303 -2.431698,0.792526 -1.264281,0.245247 -3.266429,0.638265 -4.449229,0.873373 l -2.150538,0.427468 0.001,0.694398 c 0.0069,4.829337 4.093267,10.188258 11.104397,14.562641 0.612513,0.382165 1.176506,0.694838 1.253315,0.694838 0.07681,0 0.647615,-0.31841 1.268472,-0.707581 z M 24.010079,18.86925 c -0.539991,-0.479931 -0.51373,-1.239567 0.0612,-1.770354 0.357459,-0.330007 0.517313,-0.390862 0.84747,-0.322636 0.633111,0.130833 1.015167,0.583911 1.015167,1.203875 0,1.067155 -1.133886,1.591192 -1.92383,0.889115 z"
         style="fill:#00b4d8;fill-opacity:1;stroke-width:0.508437"
         id="path1-1" />
      <text
         xml:space="preserve"
         transform="matrix(0.13234083,0,0,0.13674258,-25.436124,-34.966618)"
         id="text1-1"
         style="font-style:normal;font-variant:normal;font-weight:bold;font-stretch:normal;font-size:64px;font-family:Corbel;-inkscape-font-specification:'Corbel Bold';writing-mode:lr-tb;direction:ltr;white-space:pre;shape-inside:url(#rect1-5);display:inline;fill:#000000;fill-opacity:1;stroke:none;stroke-width:1.00157;stroke-linejoin:round"><tspan
           x="219.88867"
           y="581.59005"
           id="tspan4"><tspan
             style="font-family:Leelawadee;-inkscape-font-specification:'Leelawadee Bold'"
             id="tspan2">PipeGuard</tspan></tspan></text>
    </g>
  </g>
</svg>
